<?xml version="1.0" encoding="UTF-8" standalone="no"?>
<!DOCTYPE svg PUBLIC "-//W3C//DTD SVG 1.1//EN" "http://www.w3.org/Graphics/SVG/1.1/DTD/svg11.dtd">
<!-- Created with Vectornator (http://vectornator.io/) -->
<svg height="100%" stroke-miterlimit="10" style="fill-rule:nonzero;clip-rule:evenodd;stroke-linecap:round;stroke-linejoin:round;" version="1.1" viewBox="0 0 291.319 291.319" width="100%" xml:space="preserve" xmlns="http://www.w3.org/2000/svg" xmlns:xlink="http://www.w3.org/1999/xlink">
<defs/>
<clipPath id="ArtboardFrame">
<rect height="291.319" width="291.319" x="0" y="0"/>
</clipPath>
<g clip-path="url(#ArtboardFrame)" id="Untitled">
<g opacity="1">
<path d="M145.659 0C226.109 0 291.319 65.219 291.319 145.66C291.319 226.11 226.109 291.319 145.659 291.319C65.209 291.319 0 226.109 0 145.66C0 65.219 65.21 0 145.659 0Z" fill="#d3d3d3" fill-rule="evenodd" opacity="1" stroke="none"/>
<path d="M212.353 114.98L212.508 114.953L217.333 109.582L217.096 109.564L217.606 108.763L150.011 108.763L152.615 118.012L171.059 118.012L140.015 146.734C133.679 137.494 118.831 116.255 108.471 100.323L127.725 100.323L127.725 93.768L127.989 91.884L127.725 91.848L127.725 91.083L54.631 91.083L54.631 100.323L77.49 100.323C86.366 107.651 124.848 154.372 126.25 158.833C126.814 163.012 127.616 187.674 125.959 189.531C123.965 192.399 103.145 190.851 99.476 191.124L99.339 200.182C106.039 200.382 126.14 200.173 132.923 200.173C146.287 200.173 169.693 199.827 172.988 200.091L173.398 191.515L146.497 191.114C145.933 187.227 145.314 162.692 145.878 160.016C148.418 152.251 189.694 120.114 193.937 118.904L197.934 118.003L210.406 118.003C210.405 118.002 212.353 114.98 212.353 114.98ZM202.266 179.079L213.955 179.971L227.583 129.992C225.307 129.91 204.633 128.062 201.947 127.561L202.266 179.079ZM200.245 187.091L200.309 199.299L206.226 199.791L212.617 200.237L214.492 188.293L207.755 187.983C207.756 187.983 200.245 187.091 200.245 187.091Z" fill="#ffffff" fill-rule="evenodd" opacity="1" stroke="none"/>
</g>
</g>
</svg>
