<?xml version="1.0" encoding="UTF-8" standalone="no"?>
<!DOCTYPE svg PUBLIC "-//W3C//DTD SVG 1.1//EN" "http://www.w3.org/Graphics/SVG/1.1/DTD/svg11.dtd">
<!-- Created with Vectornator (http://vectornator.io/) -->
<svg height="100%" stroke-miterlimit="10" style="fill-rule:nonzero;clip-rule:evenodd;stroke-linecap:round;stroke-linejoin:round;" version="1.1" viewBox="0 0 48 48" width="100%" xml:space="preserve" xmlns="http://www.w3.org/2000/svg" xmlns:vectornator="http://vectornator.io" xmlns:xlink="http://www.w3.org/1999/xlink">
<defs/>
<g id="Untitled" vectornator:layerName="Untitled">
<path d="M32.3603 1.34871C32.7592 4.05768 31.6565 6.71154 30.202 8.58919C28.6458 10.6034 25.9634 12.161 23.3644 12.0797C22.89 9.48619 24.1048 6.81392 25.5829 5.01754C27.2042 3.03497 29.983 1.51392 32.3603 1.34871ZM40.1676 39.479C41.5075 37.4256 42.008 36.3897 43.048 34.0714C35.4832 31.1947 34.2711 20.44 41.7576 16.3123C39.4741 13.4486 36.2653 11.7886 33.2362 11.7886C31.0536 11.7886 29.5582 12.3582 28.1988 12.8759C27.0659 13.3075 26.0273 13.7029 24.7643 13.7029C23.3994 13.7029 22.1906 13.2696 20.925 12.8158C19.5342 12.3172 18.0748 11.7939 16.2637 11.7939C12.8646 11.7939 9.24641 13.8709 6.9524 17.4216C3.72789 22.4226 4.2779 31.8241 9.50705 39.8329C11.3761 42.6993 13.8733 45.9197 17.1396 45.9484C18.4948 45.9619 19.3968 45.5575 20.3726 45.1197C21.4898 44.6187 22.7038 44.0741 24.8061 44.063C26.9205 44.0503 28.1155 44.6014 29.2177 45.1099C30.1687 45.5484 31.0505 45.9553 32.3943 45.9407C35.6631 45.9145 38.2985 42.3452 40.1676 39.479Z" fill="#0b0b0a" fill-rule="evenodd" opacity="1" stroke="none"/>
</g>
</svg>
