<?xml version="1.0" encoding="UTF-8" standalone="no"?>
<!DOCTYPE svg PUBLIC "-//W3C//DTD SVG 1.1//EN" "http://www.w3.org/Graphics/SVG/1.1/DTD/svg11.dtd">
<!-- Created with Vectornator (http://vectornator.io/) -->
<svg height="100%" stroke-miterlimit="10" style="fill-rule:nonzero;clip-rule:evenodd;stroke-linecap:round;stroke-linejoin:round;" version="1.1" viewBox="0 0 512 512" width="100%" xml:space="preserve" xmlns="http://www.w3.org/2000/svg" xmlns:xlink="http://www.w3.org/1999/xlink">
<defs/>
<g id="Layer-1">
<path d="M397.434 419.694C397.434 445.682 337.238 466.747 262.993 466.747C188.735 466.747 128.539 445.682 128.539 419.694C128.539 393.705 188.733 372.636 262.993 372.636C337.238 372.636 397.434 393.709 397.434 419.694Z" fill="#9cdaf1" fill-rule="evenodd" opacity="1" stroke="none"/>
<path d="M226.453 464.993L226.453 431.452C226.453 427.121 225.669 423.498 224.361 420.439C233.034 427.175 233.62 444.101 233.62 444.101L233.62 465.623C241.425 466.232 249.484 466.601 257.735 466.713L257.518 445.297C256.323 416.022 231.231 412.439 231.231 412.439C222.061 410.357 222.198 414.959 223.119 417.932C214.122 402.589 190.011 404.571 190.011 404.571C181.644 407.555 189.41 412.934 189.41 412.934C202.557 417.712 203.75 432.052 203.75 432.052L203.75 461.95C210.99 463.19 218.571 464.216 226.457 464.988L226.453 464.993Z" fill="#7dbbe6" fill-rule="evenodd" opacity="1" stroke="none"/>
<path d="M332.201 404.569C332.201 404.569 308.086 402.587 299.09 417.933C300.012 414.959 300.152 410.353 290.98 412.436C290.98 412.436 265.889 416.021 264.694 445.295L264.474 466.743C272.712 466.711 280.771 466.422 288.59 465.894L288.59 444.1C288.59 444.1 289.179 427.174 297.85 420.438C296.541 423.497 295.758 427.118 295.758 431.451L295.758 465.339C303.623 464.651 311.213 463.721 318.46 462.57L318.46 432.051C318.46 432.051 319.655 417.71 332.801 412.932C332.801 412.92 340.559 407.541 332.193 404.554L332.201 404.569Z" fill="#7dbbe6" fill-rule="evenodd" opacity="1" stroke="none"/>
<path d="M500.258 224.639L500.613 222.881C461.172 214.994 420.696 214.915 396.21 215.932C400.233 201.439 401.443 184.762 401.443 166.166C401.443 139.494 391.422 118.157 375.154 101.921C377.997 92.7444 381.794 72.3656 371.362 46.2773C371.362 46.2773 352.958 40.4336 311.33 68.2951C295.023 64.2196 277.667 62.2072 260.287 62.2072C241.164 62.2072 221.841 64.6424 203.818 69.5861C160.861 40.2805 141.897 46.2836 141.897 46.2836C129.519 77.2385 137.173 100.159 139.498 105.851C124.949 121.553 116.066 141.597 116.066 166.172C116.066 184.724 118.178 201.368 123.337 215.834C98.6425 214.935 59.6442 215.28 21.6104 222.886L21.9597 224.644C60.2226 216.992 99.4665 216.726 124.011 217.655C125.147 220.65 126.414 223.554 127.834 226.362C103.562 227.144 62.1174 230.237 22.3989 241.442L22.8887 243.164C62.9211 231.876 104.725 228.86 128.762 228.125C143.264 255.157 171.856 272.616 222.721 278.099C215.502 282.95 208.137 291.198 205.152 305.152C195.314 309.858 164.171 321.344 145.486 289.205C145.486 289.205 135.026 270.082 115.005 268.585C115.005 268.585 95.5846 268.287 113.665 280.687C113.665 280.687 126.66 286.811 135.626 309.822C135.626 309.822 147.322 349.071 203.764 336.479L203.764 377.021C203.764 377.021 202.57 391.361 189.424 396.139C189.424 396.139 181.656 401.517 190.025 404.5C190.025 404.5 226.467 407.489 226.467 377.62L226.467 333.411C226.467 333.411 225.021 315.878 233.634 309.784L233.634 382.398C233.634 382.398 233.039 399.723 224.077 406.295C224.077 406.295 218.099 417.046 231.245 414.063C231.245 414.063 256.336 410.478 257.532 381.204L258.1 307.719L264.131 307.719L264.704 381.204C265.898 410.478 290.99 414.063 290.99 414.063C304.132 417.046 298.158 406.295 298.158 406.295C289.197 399.723 288.6 382.398 288.6 382.398L288.6 310.411C297.208 317.114 295.768 333.409 295.768 333.409L295.768 377.619C295.768 407.489 332.211 404.499 332.211 404.499C340.572 401.516 332.811 396.138 332.811 396.138C319.665 391.36 318.471 377.02 318.471 377.02L318.471 319.069C318.471 296.472 308.955 284.505 299.65 278.188C353.896 272.808 379.927 255.293 391.922 228.078C415.683 228.731 458.443 231.626 499.345 243.164L499.831 241.442C459.163 229.971 416.685 227.003 392.684 226.305C393.821 223.556 394.813 220.696 395.694 217.755C420.058 216.742 460.725 216.755 500.315 224.666L500.258 224.639Z" fill="#000000" fill-rule="evenodd" opacity="1" stroke="none"/>
<path d="M348.389 164.914C360.072 175.499 366.907 188.281 366.907 202.053C366.907 266.355 318.973 268.098 259.849 268.098C200.715 268.098 152.786 259.193 152.786 202.053C152.786 188.372 159.525 175.67 171.064 165.128C190.312 147.559 222.889 156.861 259.848 156.861C296.641 156.856 329.106 147.459 348.383 164.907L348.389 164.914Z" fill="#f4cbb2" fill-rule="evenodd" opacity="1" stroke="none"/>
<path d="M224.238 205.325C224.238 223.037 214.264 237.392 201.962 237.392C189.659 237.392 179.686 223.037 179.686 205.325C179.686 187.615 189.659 173.265 201.962 173.265C214.264 173.277 224.238 187.618 224.238 205.325ZM343.756 205.325C343.756 223.037 333.783 237.392 321.48 237.392C309.178 237.392 299.204 223.037 299.204 205.325C299.204 187.615 309.178 173.265 321.48 173.265C333.783 173.277 343.756 187.618 343.756 205.325Z" fill="#ffffff" fill-rule="evenodd" opacity="1" stroke="none"/>
<g opacity="1">
<path d="M217.099 205.73C217.099 217.536 210.442 227.103 202.248 227.103C194.054 227.103 187.397 217.536 187.397 205.73C187.397 193.919 194.049 184.347 202.248 184.347C210.437 184.347 217.094 193.916 217.094 205.725L217.099 205.73ZM336.605 205.73C336.605 217.536 329.948 227.103 321.754 227.103C313.56 227.103 306.904 217.536 306.904 205.73C306.904 193.919 313.555 184.347 321.754 184.347C329.943 184.347 336.6 193.916 336.6 205.725L336.605 205.73Z" fill="#ad5c51" fill-rule="evenodd" opacity="1" stroke="none"/>
<path d="M254.613 233.803C254.613 230.726 257.107 228.232 260.183 228.232C263.26 228.232 265.754 230.726 265.754 233.803C265.754 236.879 263.26 239.373 260.183 239.373C257.107 239.373 254.613 236.879 254.613 233.803Z" fill="#ad5c51" fill-rule="evenodd" opacity="1" stroke="none"/>
<path d="M247.185 247.89C246.856 246.956 247.347 245.934 248.274 245.605C249.207 245.276 250.231 245.767 250.559 246.695C251.994 250.742 255.833 253.461 260.116 253.461C264.399 253.461 268.238 250.744 269.673 246.695C270.002 245.761 271.024 245.276 271.958 245.605C272.892 245.934 273.377 246.956 273.049 247.89C271.114 253.362 265.912 257.039 260.116 257.039C254.321 257.039 249.13 253.381 247.194 247.901L247.185 247.89Z" fill="#ad5c51" fill-rule="evenodd" opacity="1" stroke="none"/>
</g>
<path d="M123.668 273.368C123.668 274.854 121.926 276.054 119.782 276.054C117.639 276.054 115.896 274.854 115.896 273.368C115.896 271.881 117.639 270.676 119.782 270.676C121.926 270.676 123.668 271.878 123.668 273.372L123.668 273.368ZM134.426 279.342C134.426 280.828 132.684 282.028 130.54 282.028C128.398 282.028 126.655 280.828 126.655 279.342C126.655 277.855 128.398 276.65 130.54 276.65C132.684 276.65 134.426 277.852 134.426 279.346L134.426 279.342ZM140.999 287.113C140.999 288.599 139.257 289.799 137.113 289.799C134.97 289.799 133.227 288.599 133.227 287.113C133.227 285.626 134.97 284.421 137.113 284.421C139.257 284.421 140.999 285.623 140.999 287.117L140.999 287.113ZM146.973 296.074C146.973 297.56 145.231 298.76 143.087 298.76C140.944 298.76 139.201 297.56 139.201 296.074C139.201 294.587 140.944 293.382 143.087 293.382C145.231 293.382 146.973 294.585 146.973 296.078L146.973 296.074ZM153.539 304.44C153.539 305.926 151.798 307.126 149.653 307.126C147.511 307.126 145.768 305.926 145.768 304.44C145.768 302.953 147.511 301.748 149.653 301.748C151.798 301.748 153.539 302.951 153.539 304.444L153.539 304.44ZM162.513 311.604C162.513 313.09 160.771 314.29 158.627 314.29C156.484 314.29 154.742 313.09 154.742 311.604C154.742 310.117 156.484 308.912 158.627 308.912C160.771 308.912 162.513 310.115 162.513 311.608L162.513 311.604ZM175.056 316.389C175.056 317.874 173.314 319.074 171.17 319.074C169.027 319.074 167.284 317.874 167.284 316.389C167.284 314.901 169.027 313.696 171.17 313.696C173.314 313.696 175.056 314.899 175.056 316.392L175.056 316.389ZM187.548 316.389C187.548 317.874 185.807 319.074 183.662 319.074C181.52 319.074 179.777 317.874 179.777 316.389C179.777 314.901 181.52 313.696 183.662 313.696C185.807 313.696 187.548 314.899 187.548 316.392L187.548 316.389ZM200.218 314.313C200.218 315.799 198.476 316.999 196.332 316.999C194.189 316.999 192.446 315.799 192.446 314.313C192.446 312.826 194.189 311.621 196.332 311.621C198.476 311.621 200.218 312.823 200.218 314.317L200.218 314.313Z" fill="#c3e4d8" fill-rule="evenodd" opacity="1" stroke="none"/>
<path d="M109.401 281.342L105.52 294.863C105.52 294.863 104.508 299.75 109.115 300.617C113.924 300.523 113.527 296.026 113.194 294.566L109.401 281.342Z" fill="#9cdaf1" fill-rule="evenodd" opacity="1" stroke="none"/>
</g>
</svg>
