<?xml version="1.0" encoding="UTF-8" standalone="no"?>
<!DOCTYPE svg PUBLIC "-//W3C//DTD SVG 1.1//EN" "http://www.w3.org/Graphics/SVG/1.1/DTD/svg11.dtd">
<!-- Created with Vectornator (http://vectornator.io/) -->
<svg height="100%" stroke-miterlimit="10" style="fill-rule:nonzero;clip-rule:evenodd;stroke-linecap:round;stroke-linejoin:round;" version="1.1" viewBox="0 0 48 48" width="100%" xml:space="preserve" xmlns="http://www.w3.org/2000/svg" xmlns:vectornator="http://vectornator.io" xmlns:xlink="http://www.w3.org/1999/xlink">
<defs/>
<g id="Untitled" vectornator:layerName="Untitled">
<path d="M12.2559 28.1568C11.8121 26.8491 11.5553 25.4478 11.5553 24C11.5553 22.552 11.8121 21.1509 12.2325 19.8432L5.4368 14.5654C4.01247 17.4145 3.19502 20.6138 3.19502 24C3.19502 27.386 4.01247 30.5855 5.4368 33.4344L12.2559 28.1568L12.2559 28.1568Z" fill="#fbbc05" fill-rule="evenodd" opacity="1" stroke="none"/>
<g opacity="1">
<path d="M24.2123 11.1093C28.159 11.1093 30.8211 12.8141 32.3392 14.2387L38.2707 8.44718C34.6276 5.06096 29.887 2.98267 24.2123 2.98267C15.9923 2.98267 8.89314 7.69985 5.437 14.5654L12.2325 19.8432C13.9373 14.7756 18.6545 11.1093 24.2123 11.1093L24.2123 11.1093Z" fill="#ea4335" fill-rule="evenodd" opacity="1" stroke="none"/>
<path d="M44.389 24.467C44.389 22.739 44.2489 21.4779 43.9452 20.1702L24.2123 20.1702L24.2123 27.9698L35.7953 27.9698C35.5617 29.9081 34.3007 32.8273 31.4983 34.7888L38.1305 39.9265C42.1005 36.26 44.389 30.8656 44.389 24.467L44.389 24.467Z" fill="#4285f4" fill-rule="evenodd" opacity="1" stroke="none"/>
<path d="M24.2123 45.0173C29.887 45.0173 34.6509 43.1492 38.1305 39.9265L31.4983 34.789C29.7235 36.0266 27.3415 36.8907 24.2123 36.8907C18.6545 36.8907 13.9373 33.2242 12.2559 28.1568L5.46024 33.4344C8.91638 40.3001 15.9921 45.0173 24.2123 45.0173L24.2123 45.0173Z" fill="#34a853" fill-rule="evenodd" opacity="1" stroke="none"/>
</g>
</g>
</svg>
